<svg xmlns="http://www.w3.org/2000/svg" width="40" height="40" viewBox="0 0 40 40">
  <g id="Group_22" data-name="Group 22" transform="translate(-65.004 0.5)">
    <g id="Group_21" data-name="Group 21">
      <rect id="Base" width="40" height="40" rx="20" transform="translate(65.004 -0.5)" fill="#cef9c6"/>
    </g>
    <g id="Group_1" data-name="Group 1" transform="translate(78.004 12.5)">
      <g id="Group_4" data-name="Group 4" transform="translate(0)">
        <g id="Group_3" data-name="Group 3" transform="translate(0)">
          <g id="Group_2" data-name="Group 2" transform="translate(0)">
            <g id="Group_1-2" data-name="Group 1">
              <path id="Path_1" data-name="Path 1" d="M7.556,2.778h7.584" transform="translate(-0.139)" fill="none" stroke="#000" stroke-linecap="round" stroke-linejoin="round" stroke-width="1" fill-rule="evenodd"/>
              <path id="Path_2" data-name="Path 2" d="M7.556,5.611h4.751" transform="translate(-0.101)" fill="none" stroke="#000" stroke-linecap="round" stroke-linejoin="round" stroke-width="1" fill-rule="evenodd"/>
              <path id="Path_3" data-name="Path 3" d="M7.556,8.444h2.862" transform="translate(-0.086)" fill="none" stroke="#000" stroke-linecap="round" stroke-linejoin="round" stroke-width="1" fill-rule="evenodd"/>
              <path id="Path_4" data-name="Path 4" d="M3.048,12.9V.548A.553.553,0,0,1,3.594,0a.541.541,0,0,1,.547.548V12.9L6.26,10.786a.547.547,0,0,1,.773.773L3.593,15l-.773-.773,0,0L.154,11.556a.547.547,0,0,1,.773-.773Z" transform="translate(0)" fill-rule="evenodd"/>
            </g>
          </g>
        </g>
      </g>
    </g>
  </g>
</svg>
