<svg xmlns="http://www.w3.org/2000/svg" width="70" height="61" viewBox="0 0 70 61">
  <path id="Logo" d="M10.031,59.728,1.28,51.013a4.366,4.366,0,0,1,6.187-6.161l5.653,5.63,14.4-14.353a4.4,4.4,0,0,1,6.2.009,4.347,4.347,0,0,1,0,6.161l-17.5,17.429a4.4,4.4,0,0,1-6.187,0Zm38.093-7.442a4.357,4.357,0,1,1,0-8.715h17.5a4.357,4.357,0,1,1,0,8.715ZM10.031,24.861,1.28,16.146A4.366,4.366,0,0,1,7.466,9.985l5.653,5.639L27.524,1.27a4.4,4.4,0,0,1,6.2.009,4.348,4.348,0,0,1,0,6.161L16.217,24.87a4.4,4.4,0,0,1-3.1,1.272A4.341,4.341,0,0,1,10.031,24.861Zm38.093-7.434a4.357,4.357,0,1,1,0-8.715h17.5a4.357,4.357,0,1,1,0,8.715Z" transform="translate(0 0)" fill="#ffc200"/>
</svg>
