<svg width="199" height="33" viewBox="0 0 199 33" fill="none" xmlns="http://www.w3.org/2000/svg">
<g clip-path="url(#clip0)">
<path d="M4.87161 31.374L0.621609 27.088C0.223315 26.6843 0 26.1401 0 25.573C0 25.0059 0.223315 24.4617 0.621609 24.058C0.8181 23.8601 1.05179 23.7031 1.30923 23.596C1.56667 23.4888 1.84276 23.4336 2.12161 23.4336C2.40046 23.4336 2.67655 23.4888 2.93399 23.596C3.19143 23.7031 3.42512 23.8601 3.62161 24.058L6.36761 26.827L13.3676 19.768C13.5646 19.5694 13.799 19.4117 14.0572 19.3042C14.3154 19.1966 14.5924 19.1412 14.8721 19.1412C15.1518 19.1412 15.4288 19.1966 15.687 19.3042C15.9453 19.4117 16.1796 19.5694 16.3766 19.768C16.7749 20.1717 16.9982 20.7159 16.9982 21.283C16.9982 21.8501 16.7749 22.3944 16.3766 22.798L7.87661 31.37C7.67998 31.5676 7.44625 31.7244 7.18883 31.8314C6.93141 31.9385 6.65538 31.9935 6.37661 31.9935C6.09784 31.9935 5.82181 31.9385 5.56439 31.8314C5.30697 31.7244 5.07324 31.5676 4.87661 31.37L4.87161 31.374ZM23.3716 27.714C22.8032 27.714 22.2582 27.4882 21.8563 27.0863C21.4544 26.6844 21.2286 26.1394 21.2286 25.571C21.2286 25.0026 21.4544 24.4576 21.8563 24.0557C22.2582 23.6538 22.8032 23.428 23.3716 23.428H31.8716C32.44 23.428 32.985 23.6538 33.3869 24.0557C33.7888 24.4576 34.0146 25.0026 34.0146 25.571C34.0146 26.1394 33.7888 26.6844 33.3869 27.0863C32.985 27.4882 32.44 27.714 31.8716 27.714H23.3716ZM4.87161 14.227L0.621609 9.94101C0.223315 9.53735 0 8.99308 0 8.42601C0 7.85893 0.223315 7.31466 0.621609 6.91101C0.8181 6.71315 1.05179 6.55612 1.30923 6.44896C1.56667 6.3418 1.84276 6.28664 2.12161 6.28664C2.40046 6.28664 2.67655 6.3418 2.93399 6.44896C3.19143 6.55612 3.42512 6.71315 3.62161 6.91101L6.37161 9.68401L13.3716 2.62501C13.5686 2.42639 13.803 2.26875 14.0612 2.16117C14.3194 2.05359 14.5964 1.9982 14.8761 1.9982C15.1558 1.9982 15.4328 2.05359 15.691 2.16117C15.9493 2.26875 16.1836 2.42639 16.3806 2.62501C16.7789 3.02866 17.0022 3.57293 17.0022 4.14001C17.0022 4.70708 16.7789 5.25135 16.3806 5.65501L7.88061 14.227C7.48316 14.6258 6.94367 14.8506 6.38061 14.852C6.10009 14.8539 5.82203 14.7996 5.56286 14.6922C5.30368 14.5849 5.06864 14.4267 4.87161 14.227V14.227ZM23.3716 10.571C22.8032 10.571 22.2582 10.3452 21.8563 9.94334C21.4544 9.54145 21.2286 8.99637 21.2286 8.42801C21.2286 7.85965 21.4544 7.31457 21.8563 6.91268C22.2582 6.51079 22.8032 6.28501 23.3716 6.28501H31.8716C32.44 6.28501 32.985 6.51079 33.3869 6.91268C33.7888 7.31457 34.0146 7.85965 34.0146 8.42801C34.0146 8.99637 33.7888 9.54145 33.3869 9.94334C32.985 10.3452 32.44 10.571 31.8716 10.571H23.3716Z" fill="#FFC200"/>
<path d="M69.7148 26H66.0938V11.8906H59.7891V26H56.1562V8.86719H69.7148V26ZM80.9531 26.2344C79.4141 26.2344 78.207 25.6758 77.332 24.5586H77.1445C77.2695 25.6523 77.332 26.2852 77.332 26.457V31.7656H73.7578V12.8984H76.6641L77.168 14.5977H77.332C78.168 13.3008 79.4062 12.6523 81.0469 12.6523C82.5938 12.6523 83.8047 13.25 84.6797 14.4453C85.5547 15.6406 85.9922 17.3008 85.9922 19.4258C85.9922 20.8242 85.7852 22.0391 85.3711 23.0703C84.9648 24.1016 84.3828 24.8867 83.625 25.4258C82.8672 25.9648 81.9766 26.2344 80.9531 26.2344ZM79.8984 15.5117C79.0156 15.5117 78.3711 15.7852 77.9648 16.332C77.5586 16.8711 77.3477 17.7656 77.332 19.0156V19.4023C77.332 20.8086 77.5391 21.8164 77.9531 22.4258C78.375 23.0352 79.0391 23.3398 79.9453 23.3398C81.5469 23.3398 82.3477 22.0195 82.3477 19.3789C82.3477 18.0898 82.1484 17.125 81.75 16.4844C81.3594 15.8359 80.7422 15.5117 79.8984 15.5117ZM91.793 19.4258C91.793 20.7227 92.0039 21.7031 92.4258 22.3672C92.8555 23.0312 93.5508 23.3633 94.5117 23.3633C95.4648 23.3633 96.1484 23.0352 96.5625 22.3789C96.9844 21.7148 97.1953 20.7305 97.1953 19.4258C97.1953 18.1289 96.9844 17.1562 96.5625 16.5078C96.1406 15.8594 95.4492 15.5352 94.4883 15.5352C93.5352 15.5352 92.8477 15.8594 92.4258 16.5078C92.0039 17.1484 91.793 18.1211 91.793 19.4258ZM100.852 19.4258C100.852 21.5586 100.289 23.2266 99.1641 24.4297C98.0391 25.6328 96.4727 26.2344 94.4648 26.2344C93.207 26.2344 92.0977 25.9609 91.1367 25.4141C90.1758 24.8594 89.4375 24.0664 88.9219 23.0352C88.4062 22.0039 88.1484 20.8008 88.1484 19.4258C88.1484 17.2852 88.707 15.6211 89.8242 14.4336C90.9414 13.2461 92.5117 12.6523 94.5352 12.6523C95.793 12.6523 96.9023 12.9258 97.8633 13.4727C98.8242 14.0195 99.5625 14.8047 100.078 15.8281C100.594 16.8516 100.852 18.0508 100.852 19.4258ZM110.742 19.2617V12.8984H114.07V19.2617L118.734 12.8984H122.426L117.598 19.1797L122.883 26H119.062L114.07 19.3555V26H110.742V19.3555L105.75 26H101.93L107.215 19.1797L102.387 12.8984H106.078L110.742 19.2617ZM130.184 15.1953C129.426 15.1953 128.832 15.4375 128.402 15.9219C127.973 16.3984 127.727 17.0781 127.664 17.9609H132.68C132.664 17.0781 132.434 16.3984 131.988 15.9219C131.543 15.4375 130.941 15.1953 130.184 15.1953ZM130.688 26.2344C128.578 26.2344 126.93 25.6523 125.742 24.4883C124.555 23.3242 123.961 21.6758 123.961 19.543C123.961 17.3477 124.508 15.6523 125.602 14.457C126.703 13.2539 128.223 12.6523 130.16 12.6523C132.012 12.6523 133.453 13.1797 134.484 14.2344C135.516 15.2891 136.031 16.7461 136.031 18.6055V20.3398H127.582C127.621 21.3555 127.922 22.1484 128.484 22.7188C129.047 23.2891 129.836 23.5742 130.852 23.5742C131.641 23.5742 132.387 23.4922 133.09 23.3281C133.793 23.1641 134.527 22.9023 135.293 22.543V25.3086C134.668 25.6211 134 25.8516 133.289 26C132.578 26.1562 131.711 26.2344 130.688 26.2344ZM147.527 12.8984H151.465L146.273 19.1797L151.922 26H147.867L142.512 19.3555V26H138.938V12.8984H142.512V19.2617L147.527 12.8984ZM164.637 12.8984V15.582H160.348V26H156.773V15.582H152.473V12.8984H164.637ZM165.211 12.8984H169.125L171.598 20.2695C171.809 20.9102 171.953 21.668 172.031 22.543H172.102C172.188 21.7383 172.355 20.9805 172.605 20.2695L175.031 12.8984H178.863L173.32 27.6758C172.812 29.043 172.086 30.0664 171.141 30.7461C170.203 31.4258 169.105 31.7656 167.848 31.7656C167.23 31.7656 166.625 31.6992 166.031 31.5664V28.7305C166.461 28.832 166.93 28.8828 167.438 28.8828C168.07 28.8828 168.621 28.6875 169.09 28.2969C169.566 27.9141 169.938 27.332 170.203 26.5508L170.414 25.9062L165.211 12.8984ZM197.262 26H193.922V15.6758L193.734 16.4023C193.312 18.0508 192.934 19.2969 192.598 20.1406L190.277 26H187.734L185.379 20.0938C185.043 19.2344 184.684 18.0273 184.301 16.4727L184.078 15.6758V26H180.75V12.8984H185.672L187.922 18.4883C188.156 19.0898 188.371 19.7812 188.566 20.5625C188.77 21.3438 188.906 22.0117 188.977 22.5664C189.234 21.3945 189.434 20.5547 189.574 20.0469C189.723 19.5312 189.883 19.0586 190.055 18.6289C190.227 18.1992 191.004 16.2891 192.387 12.8984H197.262V26Z" fill="black"/>
</g>
<defs>
<clipPath id="clip0">
<rect width="199" height="33" fill="white"/>
</clipPath>
</defs>
</svg>
